<?xml version="1.0" encoding="UTF-8" standalone="no"?>
<!-- Created with Inkscape (http://www.inkscape.org/) -->
<svg
   xmlns:dc="http://purl.org/dc/elements/1.1/"
   xmlns:cc="http://creativecommons.org/ns#"
   xmlns:rdf="http://www.w3.org/1999/02/22-rdf-syntax-ns#"
   xmlns:svg="http://www.w3.org/2000/svg"
   xmlns="http://www.w3.org/2000/svg"
   xmlns:sodipodi="http://sodipodi.sourceforge.net/DTD/sodipodi-0.dtd"
   xmlns:inkscape="http://www.inkscape.org/namespaces/inkscape"
   width="200"
   height="200"
   id="svg2"
   sodipodi:version="0.32"
   inkscape:version="0.46"
   sodipodi:docname="dial2.svg"
   inkscape:output_extension="org.inkscape.output.svg.inkscape"
   version="1.0">
  <defs
     id="defs4" />
  <sodipodi:namedview
     id="base"
     pagecolor="#ffffff"
     bordercolor="#666666"
     borderopacity="1.0"
     inkscape:pageopacity="0.0"
     inkscape:pageshadow="2"
     inkscape:zoom="5.6568543"
     inkscape:cx="14.894638"
     inkscape:cy="203.00039"
     inkscape:document-units="px"
     inkscape:current-layer="layer1"
     showgrid="false"
     inkscape:window-width="1152"
     inkscape:window-height="810"
     inkscape:window-x="0"
     inkscape:window-y="25"
     showguides="true"
     inkscape:guide-bbox="true" />
  <metadata
     id="metadata7">
    <rdf:RDF>
      <cc:Work
         rdf:about="">
        <dc:format>image/svg+xml</dc:format>
        <dc:type
           rdf:resource="http://purl.org/dc/dcmitype/StillImage" />
      </cc:Work>
    </rdf:RDF>
  </metadata>
  <g
     inkscape:label="Calque 1"
     inkscape:groupmode="layer"
     id="layer1"
     transform="translate(-309.64128,-239.22243)">
    <g
       id="g6379"
       transform="matrix(0.6546279,0,0,0.7378188,309.90354,239.15744)">
      <g
         style="display:inline"
         inkscape:label="Fond"
         id="layer2">
        <path
           sodipodi:nodetypes="cssscc"
           id="path5515"
           d="M -0.34423421,-3.1222402 C -0.34423421,-3.1222402 27.228694,-3.1222402 31.617481,-3.1222402 C 36.006245,-3.1222402 38.296042,-0.98422203 38.296042,0.23749933 C 38.296042,1.459221 35.995299,3.5525327 31.612008,3.5525327 C 27.13228,3.5525327 -0.34423421,3.5525327 -0.34423421,3.5525327 L -0.34423421,-3.1222402 z"
           style="fill:#660000;fill-opacity:0.75652179;fill-rule:evenodd;stroke:none;stroke-width:1px;stroke-linecap:butt;stroke-linejoin:miter;stroke-opacity:1;display:inline" />
        <path
           sodipodi:nodetypes="cssscc"
           id="path3080"
           d="M -0.43030698,-2.8399143 C -0.43030698,-2.8399143 25.853019,-2.8399143 30.036539,-2.8399143 C 34.220038,-2.8399143 36.40274,-0.94998722 36.40274,0.12996817 C 36.40274,1.2099236 34.209604,3.0603315 30.031322,3.0603315 C 25.761114,3.0603315 -0.43030698,3.0603315 -0.43030698,3.0603315 L -0.43030698,-2.8399143 z"
           style="fill:#c80000;fill-opacity:1;fill-rule:evenodd;stroke:none;stroke-width:1px;stroke-linecap:butt;stroke-linejoin:miter;stroke-opacity:1" />
      </g>
      <g
         style="display:inline"
         inkscape:label="Intermédiaire"
         id="layer3">
        <path
           sodipodi:nodetypes="cssscc"
           id="path3852"
           d="M 0.12963253,-2.1534508 C 0.12963253,-2.1534508 24.915361,-2.1534508 28.860508,-2.1534508 C 32.805635,-2.1534508 34.863968,-0.70942084 34.863968,0.11573689 C 34.863968,0.94089461 32.795797,2.3547294 28.855589,2.3547294 C 24.828692,2.3547294 0.12963253,2.3547294 0.12963253,2.3547294 L 0.12963253,-2.1534508 z"
           style="fill:#ea0000;fill-opacity:0.82173923;fill-rule:evenodd;stroke:none;stroke-width:1px;stroke-linecap:butt;stroke-linejoin:miter;stroke-opacity:1;display:inline" />
      </g>
      <g
         style="opacity:1"
         inkscape:label="Avant"
         id="layer4">
        <path
           sodipodi:nodetypes="cssscc"
           id="path3878"
           d="M -0.22695201,-1.6067193 C -0.22695201,-1.6067193 23.905027,-1.6067193 27.746118,-1.6067193 C 31.587188,-1.6067193 33.591232,-0.53487681 33.591232,0.077602873 C 33.591232,0.69008258 31.577609,1.7395123 27.741329,1.7395123 C 23.820645,1.7395123 -0.22695201,1.7395123 -0.22695201,1.7395123 L -0.22695201,-1.6067193 z"
           style="fill:#ff0000;fill-opacity:1;fill-rule:evenodd;stroke:none;stroke-width:1px;stroke-linecap:butt;stroke-linejoin:miter;stroke-opacity:1" />
        <path
           sodipodi:nodetypes="cssscc"
           id="path5511"
           d="M -0.29979765,-1.0211195 C -0.29979765,-1.0211195 23.048665,-1.0211195 26.765043,-1.0211195 C 30.481402,-1.0211195 32.42038,-0.31933617 32.42038,0.081681732 C 32.42038,0.48269983 30.472134,1.1698089 26.76041,1.1698089 C 22.967024,1.1698089 -0.29979765,1.1698089 -0.29979765,1.1698089 L -0.29979765,-1.0211195 z"
           style="opacity:1;fill:#ff4d00;fill-opacity:1;fill-rule:evenodd;stroke:none;stroke-width:1px;stroke-linecap:butt;stroke-linejoin:miter;stroke-opacity:1" />
        <path
           sodipodi:nodetypes="cssscc"
           id="path5513"
           d="M -0.095027815,-0.66517201 C -0.095027815,-0.66517201 22.27088,-0.66517201 25.830865,-0.66517201 C 29.390831,-0.66517201 31.248213,-0.18391401 31.248213,0.091089988 C 31.248213,0.36609399 29.381953,0.83728799 25.826427,0.83728799 C 22.192674,0.83728799 -0.095027815,0.83728799 -0.095027815,0.83728799 L -0.095027815,-0.66517201 z"
           style="opacity:1;fill:#ff9700;fill-opacity:1;fill-rule:evenodd;stroke:none;stroke-width:1px;stroke-linecap:butt;stroke-linejoin:miter;stroke-opacity:1" />
        <path
           sodipodi:nodetypes="cssscc"
           id="path5517"
           d="M -0.26714509,-0.14882038 C -0.26714509,-0.14882038 20.010835,-0.14882038 23.238485,-0.14882038 C 26.466117,-0.14882038 28.150106,0.02921462 28.150106,0.13094862 C 28.150106,0.23268362 26.458068,0.40699562 23.234461,0.40699562 C 19.93993,0.40699562 -0.26714509,0.40699562 -0.26714509,0.40699562 L -0.26714509,-0.14882038 z"
           style="opacity:1;fill:#fffb00;fill-opacity:1;fill-rule:evenodd;stroke:none;stroke-width:1px;stroke-linecap:butt;stroke-linejoin:miter;stroke-opacity:1" />
      </g>
    </g>
  </g>
</svg>
